<svg xmlns="http://www.w3.org/2000/svg" viewBox="0 0 32 32"><defs><linearGradient x1="-580.923%" y1="-579.361%" x2="175.364%" y2="175.054%" id="a"><stop stop-color="#FFD521" offset="0%"/><stop stop-color="#FFD521" offset="5%"/><stop stop-color="#F50000" offset="50.112%"/><stop stop-color="#B900B4" offset="95%"/><stop stop-color="#B900B4" offset="95.008%"/><stop stop-color="#B900B4" offset="100%"/></linearGradient><linearGradient x1=".902%" y1=".909%" x2="91.746%" y2="91.753%" id="b"><stop stop-color="#FFD521" offset="0%"/><stop stop-color="#FFD521" offset="5%"/><stop stop-color="#F50000" offset="50.112%"/><stop stop-color="#B900B4" offset="95%"/><stop stop-color="#B900B4" offset="95.008%"/><stop stop-color="#B900B4" offset="100%"/></linearGradient><linearGradient x1="-45.531%" y1="-45.602%" x2="131.225%" y2="131.281%" id="c"><stop stop-color="#FFD521" offset="0%"/><stop stop-color="#FFD521" offset="5%"/><stop stop-color="#F50000" offset="50.112%"/><stop stop-color="#B900B4" offset="95%"/><stop stop-color="#B900B4" offset="95.008%"/><stop stop-color="#B900B4" offset="100%"/></linearGradient></defs><g fill="none"><path d="M26.462 7.456a1.922 1.922 0 11-3.844 0 1.922 1.922 0 013.844 0" fill="url(#a)" transform="matrix(1 0 0 -1 0 14.916)"/><path d="M29.022 9.535c-.071-1.56-.332-2.407-.549-2.97a4.943 4.943 0 00-1.2-1.84 4.888 4.888 0 00-1.838-1.194c-.563-.22-1.413-.482-2.974-.556-1.686-.075-2.186-.09-6.463-.09-4.273 0-4.777.015-6.463.09-1.56.074-2.407.336-2.97.556-.75.287-1.28.634-1.84 1.194a4.877 4.877 0 00-1.198 1.84c-.217.563-.482 1.41-.55 2.97-.081 1.687-.096 2.195-.096 6.463 0 4.277.015 4.78.097 6.467.067 1.56.332 2.407.549 2.975a4.869 4.869 0 001.198 1.836 4.95 4.95 0 001.84 1.197c.563.22 1.41.479 2.97.553 1.686.074 2.19.093 6.463.093 4.277 0 4.777-.019 6.463-.093 1.56-.074 2.411-.332 2.974-.553a4.944 4.944 0 001.837-1.197c.563-.56.91-1.09 1.201-1.836.217-.568.478-1.415.55-2.975.077-1.686.096-2.19.096-6.467 0-4.268-.019-4.776-.097-6.463zm2.88 13.062c-.078 1.704-.346 2.87-.746 3.884a7.798 7.798 0 01-1.843 2.836 7.867 7.867 0 01-2.832 1.844c-1.019.395-2.18.667-3.885.742-1.706.082-2.25.097-6.598.097-4.343 0-4.892-.015-6.598-.097-1.701-.075-2.861-.347-3.885-.742a7.887 7.887 0 01-2.828-1.844A7.862 7.862 0 01.84 26.481C.444 25.466.176 24.3.093 22.597.02 20.89 0 20.345 0 15.998c0-4.343.019-4.888.093-6.594C.176 7.702.444 6.54.84 5.52a7.848 7.848 0 011.847-2.832A7.886 7.886 0 015.515.84C6.54.444 7.7.176 9.4.097 11.106.02 11.655 0 15.998 0c4.347 0 4.892.019 6.598.097C24.3.176 25.462.444 26.48.84a7.863 7.863 0 012.832 1.847 7.784 7.784 0 011.843 2.832c.4 1.02.668 2.183.747 3.885.078 1.706.097 2.25.097 6.594 0 4.347-.019 4.893-.097 6.599z" fill="url(#b)" transform="matrix(1 0 0 -1 0 32)"/><path d="M15.998 10.665a5.331 5.331 0 00-5.333 5.33 5.335 5.335 0 1010.67 0 5.334 5.334 0 00-5.337-5.33zm0 13.55c-4.538 0-8.213-3.683-8.213-8.22a8.213 8.213 0 018.213-8.214c4.538 0 8.217 3.679 8.217 8.213 0 4.538-3.679 8.221-8.217 8.221z" fill="url(#c)" transform="matrix(1 0 0 -1 0 31.996)"/></g></svg>