<svg viewBox="0 0 27 32" xmlns="http://www.w3.org/2000/svg" xmlns:xlink="http://www.w3.org/1999/xlink"><defs><path id="a" d="M0 .023h26.9V30.7H0z"/></defs><g transform="translate(0 .114)" fill="none" fill-rule="evenodd"><mask id="b" fill="#fff"><use xlink:href="#a"/></mask><path d="M11.008 11.673v5.036c-.263-.048-.514-.103-.768-.138-2.19-.305-4.204.945-4.95 3.07-.674 1.92.167 4.238 1.978 5.28 1.467.846 3.009.919 4.504.09 1.536-.853 2.358-2.205 2.362-3.973.016-6.51.006-13.019.006-19.528V-.114h5.013c.05 2.117.803 3.94 2.31 5.426 1.5 1.477 3.32 2.205 5.437 2.241v4.976c-2.86-.01-5.412-.894-7.749-2.639v.467c.008 3.483.012 6.966.026 10.448.005 1.209-.148 2.392-.59 3.52-1.03 2.635-2.848 4.54-5.494 5.538-3.303 1.246-6.462.835-9.3-1.274C1.454 26.852.178 24.48.015 21.533c-.246-4.407 2.631-8.416 7.023-9.64 1.2-.333 2.511-.413 3.97-.22" fill="#000B1F" fill-rule="nonzero" mask="url(#b)"/></g></svg>
