<svg xmlns="http://www.w3.org/2000/svg" viewBox="0 0 32 33"><path d="M16 .6C7.2.6 0 7.8 0 16.6s7.2 16 16 16 16-7.2 16-16-7.2-16-16-16zm8 13v.5c0 5.1-3.9 11-11 11-2.2 0-4.2-.6-5.9-1.7.3 0 .6.1.9.1 1.8 0 3.5-.6 4.8-1.6-1.7 0-3.1-1.1-3.6-2.7.2 0 .5.1.7.1.4 0 .7 0 1-.1-1.8-.4-3.1-1.9-3.1-3.8.5.3 1.1.5 1.7.5C8.6 15 8 13.8 8 12.4c0-.7.2-1.4.5-1.9 1.9 2.3 4.7 3.9 8 4-.1-.3-.1-.6-.1-.9 0-2.1 1.7-3.9 3.9-3.9 1.1 0 2.1.5 2.8 1.2.9-.2 1.7-.5 2.4-.9-.3.9-.9 1.7-1.7 2.1.8-.1 1.5-.3 2.2-.6-.6.9-1.2 1.6-2 2.1z" fill="#1da1f2"/></svg>